<svg width="11" height="11" viewBox="0 0 11 11" fill="none" xmlns="http://www.w3.org/2000/svg">
<path d="M2.53362 4.73485C2.43737 4.81735 2.42591 4.96172 2.50749 5.05797L5.75341 8.86856C5.79741 8.91943 5.86066 8.94922 5.92804 8.94922C5.93033 8.94922 5.93262 8.94922 5.93537 8.94922C6.00458 8.94693 6.06966 8.91347 6.11137 8.85802L10.9537 2.41797C11.0297 2.31668 11.0096 2.17322 10.9083 2.09714C10.8065 2.02106 10.6631 2.04031 10.5875 2.14252L5.91703 8.35385L2.85674 4.76097C2.77424 4.66427 2.62895 4.65281 2.53362 4.73485Z" fill="#1E92E7"/>
<path d="M5.51288 6.39138L8.50076 2.41763C8.57684 2.31634 8.55667 2.17288 8.45538 2.09679C8.35363 2.02025 8.21017 2.04179 8.13455 2.14217L5.14667 6.11592C5.07059 6.21721 5.09076 6.36067 5.19205 6.43675C5.23376 6.46792 5.28188 6.48304 5.33001 6.48304C5.39921 6.48304 5.46842 6.45096 5.51288 6.39138Z" fill="#1E92E7"/>
<path d="M0.0807376 4.7344C-0.0155124 4.8169 -0.0269708 4.96127 0.0546126 5.05752L3.30053 8.8681C3.34453 8.91898 3.40778 8.94877 3.47515 8.94877C3.47745 8.94877 3.47974 8.94877 3.48249 8.94877C3.5517 8.94648 3.61678 8.91302 3.65849 8.85756L4.1017 8.2686C4.17778 8.16731 4.15761 8.02385 4.05632 7.94777C3.95595 7.87169 3.81111 7.8914 3.73549 7.99315L3.46415 8.3534L0.403863 4.76052C0.320904 4.66381 0.176529 4.65235 0.0807376 4.7344Z" fill="#1E92E7"/>
</svg>
